<svg id="eolB6XZfVbG1" xmlns="http://www.w3.org/2000/svg" xmlns:xlink="http://www.w3.org/1999/xlink" viewBox="0 0 250 250" shape-rendering="geometricPrecision" text-rendering="geometricPrecision"><g transform="translate(10.386-8.12499)"><g transform="matrix(1.41825 0 0-1.54004 112.543158 182.187501)"><path d="M2.592527,-5.290158c2.562696,6.616323-38.214395,5.881409-59.45571,57.162854L-64.158,51.426c-.937095-.393672,4.774103-62.160549,60.497-78.633Z" transform="matrix(.92699 0 0 0.677367 6.619176 6.200666)" fill="#ffccc3" stroke-width="0.902186"/></g><g transform="matrix(1.41825 0 0-1.3896 43.165592 124.84091)"><path d="M0,0c-3.952-2.199-8.847,4.387-5.875,7.414c3.562,3.465,3.554-3.004,6.459-1.49c2.904,1.513.169,6.497-1.973,7.288-3.389,1.239-3.837,1.056-6.142-1.02-.46,5.928-2.863,14.119-5.046,10.878-1.693-2.514.85-9.322,1.554-12.369-.714,1.209-4.09,9.002-6.204,6.793-1.362-1.743,3.161-10.125,3.874-11.335.01-.014.018-.032.028-.047-.583.436.223-.129-.028.047-1.671.957-6.554,5.23-6.726,1.945-.099-3.323,5.714-6.64,8.589-8.491.386-1.368.963-2.533,2.091-3.105c3.381,2.598,4.056-.287,7.389-1.202c2.846-1,5.16.075,5.999,2.893C5.524,4.645,-2.626,6.38,0,0" transform="matrix(1 0 0 0.860062 6.585016 6.09333)" fill="#ffccc3" stroke-width="0.902186"/></g><g transform="matrix(1.5491 0 0-1.54004 196.738 155.227)"><path d="M-1.144095,-4.385761c23.351325-6.94775,29.834251-33.030447,28.291447-64.178633l-100.725886.572372c0,0,2.317188,50.254487,14.338644,63.606261Z" transform="matrix(.774572 0 0 0.743133-6.25923-8.3429)" fill="#fff" stroke-width="0.902186"/></g><g transform="matrix(1.24384 0 0-1.54004 228.589 221.473)"><path d="M0,0c-.467,1.122-.937,2.234-1.408,3.336-14.991.012-29.983.34-44.96,1.02-9.994.456-19.982,1.066-29.96,1.779-12.150863,1.432-10.027,1.12-15.171,1.432-.353-1.125-.689-2.23-1.01-3.319C-61.645,2.079,-30.949,0.104,0,0" transform="translate(-9.52214 0)" fill="#00cef1" stroke-width="0.902186"/></g><g transform="matrix(1.13923 0 0-1.54004 203.24 196.729)"><path d="M-9.405701,0.384c-1.499394.208394-2.128995,2.849-1.499394,4.071-12.414-.011-15.929905-.431-28.352905,0-13.055.453-26.187,2-39.27,2.545-.542-1.256-1.059-2.512-1.559-3.767c13.047-2.02,26.634-2.293,39.653-2.849c13.411-.573,17.566299-.528,31.028299,0" transform="translate(-5.42637-2.99071)" fill="#00cef1" stroke-width="0.902186"/></g><path d="M-2.903929,25.876291c-22.960905,28.365718,8.800356,14.6097,29.199911-5.426413c13.906173-17.663938,8.360319-10.146716,12.32008-23.03364-13.180683-11.918901,8.494058,4.680827-4.886013-3.817373-16.736744-9.850125-8.099501.3588-12.848099.3588Z" transform="matrix(.788011-.615661 0.615661 0.788011 181.268 90.3087)" fill="#004b7f" stroke-width="0.902186"/><path d="M-2.903929,25.876291c-2.731496,29.902105,25.099618,22.408966,39.289845,2.021263c9.595554-20.103347,6.504652-11.72603,2.230146-30.481316c2.326155,1.192076,10.572073.413605-2.807998-8.084595C23.889851,-9.89227,12.232678,1.433671,12.232678,1.433671Z" transform="matrix(.788011-.615661 0.615661 0.788011 97.7753 98.9463)" fill="#004b7f" stroke-width="0.902186"/><g transform="matrix(1.1293 0 0-1.54004 163.361 231.207)"><path d="M0,0c-17.133-.427-34.492-.235-51.685-1.171-.269-1.221-.508-2.356-.717-3.391c17.456-.121,35.028.953,52.402,1.38c16.169.398,32.349.88,48.521.687-.392,1.057-.79,2.11-1.194,3.16C31.554,0.874,15.774,0.393,0,0" transform="translate(-4.2746-.828398)" fill="#00cef1" stroke-width="0.902186"/></g><g transform="matrix(1.41825 0 0-1.54004 122.177 93.9673)"><path d="M0,-16.23335c0,0-8.721124,10.072726-13.239124,5.554726-4.519-4.519.447124-12.176726,13.239124-8.625726Z" fill="#ffccc3" stroke-width="0.902186"/></g><g transform="matrix(.888899 0 0-1.54004 27.9738 57.4305)"><path d="M40.815179,-6.641044c-30.660993-1.21188-42.80513,15.859975-15.635192,20.37731c40.345061-7.599922,72.025225-18.01393,89.935731-31.609966s-21.724287-54.530955-50.729565,2.653523l-5.126218-4.452113Z" transform="matrix(.939693 0.34202-.34202 0.939693 77.707-20.0645)" fill="#004b7f" stroke-width="0.902186"/></g><g transform="matrix(1.41825 0 0-1.72169 111.272 121.947)"><path d="" fill="#ffccc3" stroke-width="0.902186"/><path d="M5.711897,-16.005428c-3.874047,8.822663-10.56738,48.73347,23.176087,45.577499C64.084492,35.08811,62.072222,7.694447,62.489049,-0.057047c.243519-4.488916-1.961986-26.067286-27.378515-27.995712-11.793772.378884-25.52459,3.224668-29.398637,12.047331Z" transform="matrix(1 0 0 0.991036 1.23189 0.834772)" fill="#ffccc3" stroke-width="0.902186"/></g><g transform="matrix(1.41825 0 0-1.54004 205.734 93.9673)"><path d="M0,-16.23335c0,0,7.93756,9.605123,12.45656,5.087123c4.519-4.519.33544-11.709123-12.45656-8.158123Z" transform="translate(-4.85005 1.7866)" fill="#ffccc3" stroke-width="0.902186"/></g><g transform="matrix(1.41825 0 0-1.54004 148.429 110.617)"><path d="M0,-16.23335v17.596l-4.521-9.608-1.798-5.373.272-4.794l1.798-1.362l2.233,1.035Z" transform="translate(2.11528 0)" fill="#ffccc3" stroke-width="0.902186"/></g><g transform="matrix(1.41825 0 0-1.54004 150.36 80.4942)"><path d="M-0.976,-18.04689c-1.422-2.926-1.823-4.06046-3.006-7.07746-.87-2.218-2.144-4.264-2.851-6.549-1.18964-1.924425-1.774285-5.111091,1.243-6.669.123-.069.259-.131.4-.116.128.015.925.356,1.029.432.944.688,1.594,1.639,2.446,2.422.228.21.634.392.801.131.1-.156.022-.359-.062-.524-.603-1.179-1.461-2.228-2.499-3.051-.717-.569-1.578757-.436752-2.481757-.285752-.887.148-1.163263.285752-1.954243,1.108752-1.674424,4.370312.140595,7.003868,1.276,9.55c1.531,4.421,3.134463,7.127338,5.273463,11.316338.521421.905129-.448277-3.014288,0-1.02562" transform="translate(5.23219-.276725)" fill="#d46c6c" stroke-width="0.902186"/></g><g transform="matrix(1.41825 0 0-1.54004 166.463 85.4128)"><path d="M0,-16.23335c.318-.858-.181-1.794-1.115-2.09s-1.459.316-1.779,1.174c-.318.858.115,1.773,1.048,2.069.935.296,1.528-.295,1.846-1.153" transform="translate(2.11528 0)" fill="#303030" stroke-width="0.902186"/></g><g transform="matrix(1.41825 0 0-1.54004 137.608 87.6469)"><path d="M0,-16.23335c-.633-.671-1.75-.707-2.494-.08-.745.627-.444,1.35.189,2.021s1.696.752,2.441.125c.744-.627.497-1.395-.136-2.066" transform="translate(2.11528 0)" fill="#303030" stroke-width="0.902186"/></g><g transform="matrix(1.41825 0 0-1.54004 172.163 77.5503)"><path d="M0,-16.23335c-1.124.368-2.122.807-3.165,1.354-.977.513-2.225.905-2.401,2.077-.074.486.065,1.149.622,1.349c1.331.479,2.11-.167,3.226-.843c1.052-.638,1.986-1.297,2.908-2.099.892-.774-.1-2.194-1.19-1.838" transform="matrix(.965926 0.258819-.258819 0.965926-1.41191 0.607237)" fill="#004b7f" stroke-width="0.902186"/></g><g transform="matrix(1.41825 0 0-1.54004 134.852 70.6149)"><path d="M0,-16.23335c1.539.388,3.152.658,4.74.452c1.57-.205,1.611-2.771.019-3.008-1.592-.236-3.202-.01-4.745.35-1.144.269-1.182,1.911-.014,2.206" fill="#004b7f" stroke-width="0.902186"/></g><g transform="matrix(1.41825 0 0-1.46113 155.253 130.919)"><path d="M-1.54604,-16.535191c1.691513.807667,2.90499,2.294672,2.953734,3.865779.007697.23273-.011117.470534-.118012.687314-.220666,1.415543-1.370157.99006-2.269604.806216-.88766-.106577-1.6975-.466909-2.56207-.664838-1.013369-.230555-2.102847-.23128-3.111085-.000725-.593483.135577-1.159601.349457-1.768478.436459-.608021.086276-1.431382.349457-1.874357,0-.386774.050003-.386532-1.09516-.375578-1.677685.173598-3.917254,5.315696-5.272307,9.12545-3.45252" transform="matrix(1.37826 0 0 0.757105 5.82702-4.03417)" fill="rgba(93,15,15,0.84)" stroke-width="0.902186"/></g><g transform="matrix(1.41825 0 0-1.54004 174.092 100.633)"><path d="M0,-16.23335c-.17-1.072-2.102-1.654-4.313-1.301-2.213.353-3.87,1.509-3.7,2.581.171,1.072,3.104,1.494,5.317,1.14c2.213-.353,2.867-1.348,2.696-2.42" transform="translate(1.41019 0)" fill="#ffb0a0" stroke-width="0.902186"/></g><g transform="matrix(1.41825 0 0-1.54004 123.271 98.9582)"><path d="M0,-16.23335c.155,1.075,2.079,1.684,4.296,1.362c2.217-.323,3.889-1.455,3.734-2.53-.155-1.074-3.082-1.538-5.3-1.215-2.217.322-2.885,1.309-2.73,2.383" transform="translate(2.11528 0)" fill="#ffb0a0" stroke-width="0.902186"/></g><g transform="matrix(1.41825 0 0-1.54004 199.891 52.7368)"><path d="M-85.714377,18.415667c-1.890086,3.706225,5.216685-.5008,9.54989.206393.03.27,2.232914-1.705973,2.111914-1.924973-1.002257-.234801-8.725233,1.629986-8.198325.366841-1.116804-2.20852-2.973657.096651-3.814625.067257-.268-.183-4.143245,1.183752-3.861245,1.358752" transform="matrix(1.00741 0.017455 0.42023 0.99 65.6437-18.764)" fill="#006696" stroke-width="0.902186"/></g><g transform="matrix(1.41825 0 0-1.54004 205.993 64.8727)"><path d="M-81.379487,11.73506c1.776,2.01,4.596134,4.117858,5.140134,6.805858.049.243,5.740559,1.415859,5.600559,1.210859-.75-1.091-7.521693-2.410091-8.199693-3.552091-.755-1.273-1.961-2.959626-2.918-4.088626-.22-.258,2.139988-1.3954,2.368988-1.1364" transform="translate(14.4077-20.9221)" fill="#006696" stroke-width="0.902186"/></g><g transform="matrix(1.41825 0 0-1.54004 114.976 119.5)"><path d="M0.096349,-5.643172c-.025-.615-.05-1.229-.058-1.845-.008-.553-.075-1.122.09-1.656.083-.27.464-.27.548,0c.163.532-.037013,15.864475-.045013,16.415475-.008.616.101013-13.529475.076013-12.914475-.016.393-.594.393-.611,0" transform="translate(56.9809 39.356)" fill="#006696" stroke-width="0.902186"/></g><g transform="matrix(1.41825 0 0-1.54004 181.258 125.931)"><path d="M0,-16.23335c-.42-1.053-.697-2.648-.186-3.708.132-.273.584-.203.649.084.125.556-1.099473-.566-1.076473,0c.026.614,1.258473,2.917,1.331473,3.527.053.443,6.401722,2.731355,6.262722,2.383355" transform="translate(-43.571 51.3738)" fill="#006696" stroke-width="0.902186"/></g><g transform="matrix(1.41825 0 0-1.54004 191.87 120.81)"><path d="M0,-16.23335c.048-1.105-.063-2.473.362-3.51.108-.262.523-.33.603,0c.266,1.096-.041,2.405-.163,3.51-.055.501-.825.526-.802,0" transform="translate(-56.7446 32.3584)" fill="#006696" stroke-width="0.902186"/></g><g transform="matrix(1.41825 0 0-1.54004 202.893 109.562)"><path d="M0,-16.23335c.382-.511.709-1.021.863-1.65.14-.571.074-1.158.184-1.735.057-.295.432-.272.577-.075.901,1.223-.005,3.197-1.08,4.004-.313.234-1.594098.361321-1.361098.049321" transform="translate(-1.10172 21.8002)" fill="#006696" stroke-width="0.902186"/></g><g transform="matrix(1.41825 0 0-1.54004 145.82 152.264)"><path d="M0,-16.23335c-.05-.514-.152,15.22035-.316,14.73035-.123-.367-.318-.672-.196-1.055.028-.088.134-.171.231-.131.839.341.917-14.33135.977-13.54435.034.449-.653.44-.696,0" transform="translate(46.4355 54.5102)" fill="#006696" stroke-width="0.902186"/></g><g transform="matrix(1.41825 0 0-1.54004 189.161 139.453)"><path d="M0,-16.23335c-.032-.456-.065-.912-.097-1.367-.025-.379-.075-.608.213-.875.079-.073.231-.114.327-.042.586.439.373,1.616.402,2.284.023.547-.807.538-.845,0" transform="translate(11.352 45.8018)" fill="#006696" stroke-width="0.902186"/></g><g transform="matrix(1.41825 0 0-1.54004 98.5498 177.711)"><path d="M0,0c-.122-.485-.276-.959-.493-1.411-.176-.367-.431-.703-.414-1.122.011-.268.275-.404.507-.291.78.376,1.046,1.837,1.194,2.605.099.514-.663.74-.794.219" transform="translate(10.7374 61.2312)" fill="#006696" stroke-width="0.902186"/></g><g transform="matrix(1.41825 0 0-1.54004 135.866 166.302)"><path d="M0,0c-.001-.727-.163-1.645.174-2.309.094-.185.396-.185.49,0c.336.663.175,1.584.174,2.309-.001.539-.837.54-.838,0" transform="translate(-14.4542 50.202)" fill="#006696" stroke-width="0.902186"/></g><g transform="matrix(1.41825 0 0-1.54004 179.361 153.668)"><path d="M0,0c-.01-.438-.037-.874-.071-1.312-.031-.391-.113-.783.002-1.163.073-.243.39-.275.525-.068.429.657.334,1.786.34,2.543.004.513-.784.512-.796,0" transform="translate(19.8713 49.0234)" fill="#006696" stroke-width="0.902186"/></g><g transform="matrix(1.41825 0 0-1.54004 169.771 171.917)"><path d="M0,0c-.008-.65-.191-1.531.152-2.105.129-.216.447-.216.577,0c.343.576.159,1.454.151,2.105-.006.566-.874.567-.88,0" transform="translate(21.6165 60.5159)" fill="#006696" stroke-width="0.902186"/></g><g transform="matrix(1.41825 0 0-1.54004 212.371 107.957)"><path d="M0,-16.23335c.854.302,1.58.73,2.225,1.372.464.462,1.304,1.317,1.106,2.037-.029.107-.155.19-.266.151-.61-.215-.956-1.051-1.377-1.512-.548-.601-1.201-1.146-1.882-1.588-.228-.147-.088-.56.194-.46" transform="translate(-18.4656 38.4193)" fill="#006696" stroke-width="0.902186"/></g><g transform="matrix(1.41825 0 0-1.54004 209.309 21.1043)"><path d="M-81.379487,11.73506c.921.681-.654324,2.32995.390676,2.80495c1.152.525-1.33303,4.011489-.17403,4.484489.31.127.652046,4.974247.295046,4.998247-2.42.167.822308-10.252686-.795692-11.919686-.178-.183.062-.532.284-.368" transform="matrix(.999848 0.017452-.017452 0.999848 78.6342-56.0275)" fill="#006696" stroke-width="0.902186"/></g><g transform="matrix(1.41825 0 0-1.54004 209.822 24.6507)"><path d="M-84.865601,5.579479c-4.868038.930976,30.916468-1.244055,34.359216.837999.21.146-28.947049,3.936199-29.188049,3.901199-1.482-.213,26.115049-4.369199,24.661049-4.739199-1.866539-.711846-34.25429,2.089701-29.832216,1.396868-1.570593-.038-13.163666-5.016749-11.482368-4.986749" transform="translate(28.135-29.3107)" fill="#006696" stroke-width="0.902186"/></g><g transform="matrix(1.41825 0 0-1.54004 210.976 29.3001)"><path d="M-81.379487,11.73506c4.369-.717,25.797836,3.942807,29.852836,5.962807.307.153-13.850868-3.134655-14.153868-3.194655-4.462-.878-10.920968-2.718152-15.506968-2.069152-.453.064-.656-.623-.192-.699" transform="matrix(.984808 0.173648 0.173648-.984808 29.6756 2.07442)" fill="#006696" stroke-width="0.902186"/></g><g transform="matrix(1.41825 0 0-1.54004 221.332 203.346)"><path d="M-4.938293,0.42158L-19.244,-8.488c3.196351-8.662132,8.198022-16.478458,8.701009-19.992243L11.465,-29.381c-.601691.241004-11.794004,19.189676-15.22912,29.80258" transform="translate(-.731514 0.855211)" fill="#ffccc3" stroke-width="0.902186"/></g><g transform="matrix(1.41825 0 0-1.54004-204.477 535.844)"><g><g clip-path="url(#eolB6XZfVbG81)"><clipPath id="eolB6XZfVbG81"><path d="M212.968,258.93865h1.601v-1.106h-1.601Z"/></clipPath></g></g></g><g transform="matrix(1.41825 0 0-1.54004-204.477 535.844)"><g><g clip-path="url(#eolB6XZfVbG86)"><clipPath id="eolB6XZfVbG86"><path d="M208.415,253.51865h1.076v-1.113h-1.076Z"/></clipPath></g></g></g><g transform="matrix(1.41825 0 0-1.54004-204.477 535.844)"><g><g clip-path="url(#eolB6XZfVbG94)"><g opacity="0.220001"><g transform="translate(284.539 289.028)"><path d="M0,-16.23335c.648,0,.649,1.008,0,1.008-.648,0-.65-1.008,0-1.008" fill="#303030" stroke-width="0.902186"/></g></g><clipPath id="eolB6XZfVbG94"><path d="M284.052,273.80265h.973v-1.007h-.973Z"/></clipPath></g></g></g><g transform="matrix(1.41825 0 0-1.54004-204.477 535.844)"><g><g clip-path="url(#eolB6XZfVbG102)"><g opacity="0.220001"><g transform="translate(282.166 294.44)"><path d="M0,-16.23335c.663,0,.665,1.031,0,1.031-.663,0-.665-1.031,0-1.031" fill="#303030" stroke-width="0.902186"/></g></g><clipPath id="eolB6XZfVbG102"><path d="M281.668,279.23765h.996v-1.031h-.996Z"/></clipPath></g></g></g><g transform="matrix(1.41825 0 0-1.54004-204.477 535.844)"><g><g clip-path="url(#eolB6XZfVbG110)"><g opacity="0.220001"><g transform="translate(297.419 201.212)"><path d="M0,0c.686,0,.687,1.066,0,1.066s-.687-1.066,0-1.066" fill="#303030" stroke-width="0.902186"/></g></g><clipPath id="eolB6XZfVbG110"><path d="M296.904,202.278h1.03v-1.066h-1.03Z"/></clipPath></g></g></g><g transform="matrix(1.41825 0 0-1.54004-204.477 535.844)"><g><g clip-path="url(#eolB6XZfVbG118)"><g opacity="0.220001"><g transform="translate(302.164 196.513)"><path d="M0,0c.626,0,.627.973,0,.973-.626,0-.627-.973,0-.973" fill="#303030" stroke-width="0.902186"/></g></g><clipPath id="eolB6XZfVbG118"><path d="M301.694,197.486h.94v-.973h-.94Z"/></clipPath></g></g></g><g transform="matrix(1.41825 0 0-1.54004-204.477 535.844)"><g><g clip-path="url(#eolB6XZfVbG126)"><g opacity="0.220001"><g transform="translate(300.13 205.448)"><path d="M0,0c.032,0,.032.05,0,.05s-.032-.05,0-.05" fill="#303030" stroke-width="0.902186"/></g></g><clipPath id="eolB6XZfVbG126"><path d="M300.106,205.498h.048v-.05h-.048Z"/></clipPath></g></g></g></g><g transform="matrix(.770622-.220972-.069195-.241311 185.551 162.024)"><path d="M-7.328667,34.655758c0,0-22.666799-2.712856-44.110799,49.124144L-64.158,51.426c0,0-14.801136-54.745669,38.563864-72.208669Z" transform="matrix(.869079 0.153242-.179203 1.01631 15.5356-6.65538)" fill="#ffccc3" stroke-width="0.902186"/></g></svg>
